<?xml version="1.0" encoding="UTF-8" standalone="no"?>
<!-- Created with Inkscape (http://www.inkscape.org/) -->

<svg
   xmlns:dc="http://purl.org/dc/elements/1.1/"
   xmlns:cc="http://creativecommons.org/ns#"
   xmlns:rdf="http://www.w3.org/1999/02/22-rdf-syntax-ns#"
   xmlns:svg="http://www.w3.org/2000/svg"
   xmlns="http://www.w3.org/2000/svg"
   xmlns:sodipodi="http://sodipodi.sourceforge.net/DTD/sodipodi-0.dtd"
   xmlns:inkscape="http://www.inkscape.org/namespaces/inkscape"
   width="36.630001"
   height="36.630001"
   id="svg2"
   version="1.1"
   inkscape:version="0.48.2 r9819"
   sodipodi:docname="EN English Language Symbol ISO 639-1 IETF Tag Icon.svg">
  <defs
     id="defs4">
    <inkscape:perspective
       sodipodi:type="inkscape:persp3d"
       inkscape:vp_x="0 : 526.18109 : 1"
       inkscape:vp_y="0 : 1000 : 0"
       inkscape:vp_z="744.09448 : 526.18109 : 1"
       inkscape:persp3d-origin="372.04724 : 350.78739 : 1"
       id="perspective10" />
    <style
       id="style2838"
       type="text/css">
   
    .fil0 {fill:#9999FF;fill-rule:nonzero}
   
  </style>
    <inkscape:perspective
       id="perspective2850"
       inkscape:persp3d-origin="18.315001 : 12.21 : 1"
       inkscape:vp_z="36.630001 : 18.315001 : 1"
       inkscape:vp_y="0 : 1000 : 0"
       inkscape:vp_x="0 : 18.315001 : 1"
       sodipodi:type="inkscape:persp3d" />
  </defs>
  <sodipodi:namedview
     id="base"
     pagecolor="#ffffff"
     bordercolor="#666666"
     borderopacity="1.0"
     inkscape:pageopacity="0.0"
     inkscape:pageshadow="2"
     inkscape:zoom="10.727538"
     inkscape:cx="13.257934"
     inkscape:cy="17.063071"
     inkscape:document-units="px"
     inkscape:current-layer="Слой_x0020_1"
     showgrid="false"
     inkscape:window-width="1280"
     inkscape:window-height="718"
     inkscape:window-x="-8"
     inkscape:window-y="-8"
     inkscape:window-maximized="1" />
  <metadata
     id="metadata7">
    <rdf:RDF>
      <cc:Work
         rdf:about="">
        <dc:format>image/svg+xml</dc:format>
        <dc:type
           rdf:resource="http://purl.org/dc/dcmitype/StillImage" />
        <dc:title />
      </cc:Work>
    </rdf:RDF>
  </metadata>
  <g
     inkscape:label="Layer 1"
     inkscape:groupmode="layer"
     id="layer1"
     transform="translate(-155.97071,-434.04718)">
    <g
       id="Слой_x0020_1"
       transform="matrix(46.953534,0,0,46.953534,155.97071,434.04718)"
       style="fill:#3366cc;fill-opacity:0.8">
      <metadata
         id="CorelCorpID_0Corel-Layer" />
      <rect
         style="fill:#00237d;fill-opacity:0.90196078;fill-rule:evenodd;stroke:#000000;stroke-width:0;stroke-linecap:butt;stroke-linejoin:miter;stroke-miterlimit:4;stroke-opacity:1;stroke-dasharray:none"
         id="rect3775"
         width="0.77050167"
         height="0.78013295"
         x="0.0048156604"
         y="2.2428379e-008" />
      <path
         id="path2842"
         d="m 0.780133,0 0,0.780133 L 0,0.780133 0,0 0.780133,0 z m -0.0754641,0.0754641 -0.629205,0 0,0.629205 0.629205,0 0,-0.629205 z"
         class="fil0"
         style="fill:#cf142b;fill-opacity:1;fill-rule:nonzero"
         inkscape:connector-curvature="0" />
      <path
         id="path2844"
         d="m 0.31618651,0.34102571 -0.0936281,0 0,-0.0802483 0.0980814,0 0,-0.0853434 -0.19679418,0 0,0.42926482 0.20380508,0 0,-0.0853434 -0.10509203,0 0,-0.0968075 0.093628,0 0,-0.081522 z m 0.15603396,0.26367346 0,-0.0736588 c 0,-0.0839694 -0.003822,-0.15509031 -0.005727,-0.19192044 l 0.001274,0 c 0.007642,0.0317342 0.0273813,0.0883123 0.040761,0.12133022 l 0.0579522,0.14424901 0.0898067,0 0,-0.42926484 -0.0859853,0 0,0.0696367 c 0,0.0812012 0.00701,0.1645281 0.009559,0.19956264 l -0.001274,0 C 0.567755,0.41151521 0.54737432,0.35748476 0.53655217,0.33020384 l -0.0605096,-0.15477001 -0.0897966,0 0,0.42926484 0.0859752,0 z"
         class="fil0"
         style="fill:#ffffff;fill-opacity:1;fill-rule:nonzero"
         inkscape:connector-curvature="0" />
    </g>
  </g>
</svg>
