<?xml version="1.0" encoding="UTF-8" standalone="no"?>
<!-- Created with Inkscape (http://www.inkscape.org/) -->
<svg
   xmlns:dc="http://purl.org/dc/elements/1.1/"
   xmlns:cc="http://web.resource.org/cc/"
   xmlns:rdf="http://www.w3.org/1999/02/22-rdf-syntax-ns#"
   xmlns:svg="http://www.w3.org/2000/svg"
   xmlns="http://www.w3.org/2000/svg"
   xmlns:sodipodi="http://inkscape.sourceforge.net/DTD/sodipodi-0.dtd"
   xmlns:inkscape="http://www.inkscape.org/namespaces/inkscape"
   sodipodi:docname="zhong_seal.svg"
   sodipodi:docbase="C:\Documents and Settings\corinne\Bureau"
   height="300.00000px"
   width="300.00000px"
   inkscape:version="0.40+cvs"
   sodipodi:version="0.32"
   id="svg1347">
  <metadata
     id="metadata1352">
    <rdf:RDF
       id="RDF1354">
      <cc:Work
         id="Work1356"
         rdf:about="">
        <dc:format
           id="format1358">image/svg+xml</dc:format>
        <dc:type
           rdf:resource="http://purl.org/dc/dcmitype/StillImage"
           id="type1360" />
      </cc:Work>
    </rdf:RDF>
  </metadata>
  <defs
     id="defs1350" />
  <sodipodi:namedview
     inkscape:current-layer="svg1347"
     inkscape:window-y="29"
     inkscape:window-x="22"
     inkscape:cy="154.48318"
     inkscape:cx="31.897718"
     inkscape:zoom="0.75794536"
     objecttolerance="10.0"
     gridtolerance="10.0"
     guidetolerance="10.0"
     inkscape:window-height="540"
     inkscape:window-width="873"
     inkscape:pageshadow="2"
     inkscape:pageopacity="0.0"
     borderopacity="1.0"
     bordercolor="#666666"
     pagecolor="#ffffff"
     id="base"
     showborder="true"
     showguides="true"
     inkscape:guide-bbox="true">
    <sodipodi:guide
       orientation="vertical"
       position="-163.60018"
       id="guide1296" />
    <sodipodi:guide
       orientation="horizontal"
       position="-17.151632"
       id="guide1298" />
  </sodipodi:namedview>
  <path
     style="fill-opacity:1.0000000;fill:#000000"
     d="M 138.98010,110.90199 C 139.22943,99.067580 136.42892,21.493998 143.11307,10.012655 C 156.40503,1.4647238 164.53438,21.013708 160.24085,28.778111 C 159.17219,42.579373 158.02720,170.72713 157.95780,182.49344 C 157.67006,231.27756 157.38188,246.88852 157.53935,278.99600 C 157.62471,296.40229 144.38839,292.56105 143.05734,281.19992 C 141.79606,239.52714 138.73077,122.73639 138.98010,110.90199 z "
     id="Stroke3"
     sodipodi:nodetypes="cccsscc" />
  <path
     style="fill-opacity:1.0000000;fill:#000000"
     d="M 152.41493,143.67093 C 175.12178,143.94764 196.09339,143.81468 206.28369,135.74417 C 214.64988,129.11838 213.88604,117.74204 212.59322,94.330514 C 211.30040,70.918989 215.95601,49.641713 223.83247,60.853542 C 228.98042,76.638681 228.90776,90.599790 226.84949,109.64175 C 227.59076,124.03845 228.03756,142.39022 213.47242,150.68852 C 198.95374,160.06942 107.96427,161.01837 94.021171,154.95006 C 76.118262,148.74336 72.574611,128.17034 72.264815,111.82319 C 71.788913,94.220189 71.201786,78.298594 73.661407,60.968392 C 77.807568,47.030219 95.170537,52.618627 92.569358,65.949404 C 89.968166,79.280180 87.140014,84.517222 87.428004,101.16686 C 87.927930,130.07093 89.514399,137.00521 105.50442,142.31536 C 119.73802,142.85669 129.67573,143.39387 152.41493,143.67093 z "
     id="Stroke2" />
  <path
     style="fill-opacity:1.0000000;fill:#000000"
     d="M 209.89021,77.010203 C 228.49470,78.168614 221.80201,92.552813 202.96276,90.466754 C 185.07611,88.486182 102.74031,92.189005 87.426576,89.668951 C 72.112863,87.148866 80.491262,69.943848 91.605051,74.864613 C 105.60756,74.592620 191.36589,75.856796 209.89021,77.010203 z "
     id="Stroke1" />
</svg>
